<svg width="360" height="202" viewBox="0 0 360 202" fill="none" xmlns="http://www.w3.org/2000/svg">
<mask id="mask0" mask-type="alpha" maskUnits="userSpaceOnUse" x="0" y="0" width="360" height="202">
<rect width="360" height="202" fill="#C4C4C4"/>
</mask>
<g mask="url(#mask0)">
<rect width="360" height="202" fill="#FFEFED"/>
<path d="M319.901 210.169L314.718 211.343L278.376 219.671L261.308 171.648C260.936 170.561 260.306 169.588 259.533 168.729C257.901 166.955 254.836 163.206 252.603 157.94C252.603 157.94 252.603 157.911 252.574 157.883C250.455 152.874 249.109 146.55 250.483 139.252V88.4818H271.16L277.918 90.3134L278.606 90.5137C278.749 90.5423 278.892 90.5995 279.007 90.6568C279.407 90.8285 279.78 91.1147 280.066 91.4581L295.215 109.917C296.561 111.549 297.249 113.609 297.163 115.727C297.163 115.927 297.134 116.099 297.134 116.299C297.077 117.673 297.02 119.075 296.962 120.449C296.848 122.796 296.762 125.143 296.647 127.489C296.533 130.351 296.39 133.242 296.275 136.132C296.161 139.109 296.017 142.056 295.903 145.033C295.788 147.666 295.674 150.27 295.559 152.903C295.473 155.221 295.301 157.453 295.788 159.743C295.817 159.886 295.845 160 295.874 160.144C296.332 162.147 297.134 164.064 298.022 165.896C298.938 167.785 299.883 169.674 300.8 171.534C301.917 173.795 303.034 176.056 304.15 178.317C305.353 180.749 306.556 183.21 307.759 185.643C308.962 188.076 310.164 190.508 311.367 192.941C312.455 195.173 313.572 197.405 314.66 199.609C315.577 201.441 316.465 203.272 317.381 205.104C317.982 206.334 318.612 207.594 319.214 208.824C319.443 209.254 319.672 209.712 319.901 210.169Z" fill="#6E4E3D"/>
<path d="M285.536 122.223C285.421 122.338 285.278 122.424 285.106 122.424C284.963 122.424 284.849 122.367 284.734 122.281C284.448 122.023 284.362 121.937 284.304 121.88C283.875 121.394 283.503 120.85 283.13 120.22C281.899 118.188 280.925 115.841 280.037 112.808C279.35 110.404 278.634 107.828 278.29 105.167C278.176 104.337 278.176 103.535 278.147 102.705C278.119 102.019 278.119 101.332 278.033 100.645C277.975 99.9866 277.832 99.3569 277.718 98.7273C277.575 97.9832 277.431 97.2678 277.374 96.5237C277.288 95.3503 277.431 94.1483 277.575 92.9749L277.632 92.4598C277.66 92.0877 277.718 91.7157 277.775 91.315C277.832 91.0288 277.861 90.714 277.89 90.3992C277.89 90.3706 277.89 90.342 277.918 90.3134L278.605 90.5137C278.749 90.5423 278.892 90.5995 279.006 90.6568C278.978 90.943 278.921 91.2292 278.892 91.5153C278.835 91.8874 278.777 92.2594 278.749 92.6315L278.691 93.1466C278.577 94.2628 278.434 95.4075 278.52 96.495C278.577 97.1533 278.691 97.8401 278.835 98.527C278.978 99.1852 279.092 99.8435 279.178 100.559C279.236 101.274 279.264 101.99 279.293 102.705C279.321 103.507 279.321 104.279 279.436 105.052C279.78 107.628 280.467 110.146 281.154 112.522C282.013 115.441 282.93 117.73 284.104 119.648C284.448 120.22 284.791 120.707 285.164 121.136C285.221 121.193 285.393 121.336 285.507 121.451C285.736 121.622 285.765 121.995 285.536 122.223Z" fill="#573D30"/>
<path d="M259.419 140.511H252.832V141.656H259.419V140.511Z" fill="#573D30"/>
<path d="M255.151 154.305V134.93H250.512V139.28C249.166 146.578 250.512 152.932 252.602 157.911C252.459 157.511 251.428 154.563 252.087 151.586C252.202 151.071 252.975 151.157 253.032 151.672C253.433 154.391 253.891 156.051 253.92 156.165C254.006 156.423 254.235 156.595 254.464 156.595C254.521 156.595 254.578 156.595 254.636 156.566C254.951 156.48 255.123 156.165 255.037 155.851C255.008 155.765 254.808 155.021 254.55 153.761C254.75 153.933 254.951 154.134 255.151 154.305Z" fill="#573D30"/>
<path d="M319.901 210.169L314.718 211.343L300.657 179.805C300.141 178.66 299.54 177.572 298.881 176.542C298.194 175.512 297.421 174.51 296.59 173.594C291.779 168.386 289.66 161.231 290.806 154.248L297.163 115.698C297.163 115.899 297.135 116.07 297.135 116.271C297.077 117.644 297.02 119.047 296.963 120.42C296.848 122.767 296.762 125.114 296.648 127.461C296.533 130.323 296.39 133.213 296.275 136.104C296.132 139.08 296.018 142.028 295.903 145.004C295.789 147.608 295.674 150.241 295.559 152.874C295.474 155.192 295.302 157.425 295.789 159.714C295.817 159.829 295.846 159.972 295.874 160.086C296.333 162.09 297.135 164.007 298.022 165.839C298.939 167.728 299.884 169.616 300.8 171.477C301.917 173.738 303.034 175.998 304.151 178.259C305.354 180.692 306.556 183.153 307.759 185.586C308.962 188.018 310.165 190.451 311.367 192.884C312.456 195.116 313.573 197.348 314.661 199.552C315.549 201.383 316.465 203.215 317.381 205.047C317.983 206.277 318.613 207.536 319.214 208.767C319.443 209.254 319.672 209.712 319.901 210.169Z" fill="#573D30"/>
<path d="M324.855 212.087L322.393 214.348C319.815 212.631 317.209 211.543 314.517 211.085C314.116 211.028 313.715 210.971 313.314 210.913C312.684 210.856 312.054 210.828 311.424 210.828C301.716 210.828 291.779 218.526 282.157 225.938C281.355 226.568 280.553 227.169 279.751 227.799L277.775 229.315L274.453 218.269L274.023 216.866L267.351 194.858C267.208 194.372 267.265 193.857 267.551 193.427C272.763 185.271 277.746 179.204 282.557 175.168C286.309 172.049 289.946 170.16 293.554 169.473C294.585 169.273 295.645 169.158 296.676 169.158C298.251 169.158 299.826 169.387 301.344 169.874C301.773 170.017 302.146 170.303 302.346 170.704L302.833 171.591L312.283 188.934L312.942 190.165L312.971 190.193L324.855 212.087Z" fill="#66D19E"/>
<path d="M343.528 242.051L340.521 244.798C337.371 242.709 334.22 241.393 330.956 240.82C329.724 240.62 328.464 240.505 327.175 240.505C326.775 240.505 326.374 240.505 325.973 240.534C314.546 241.135 302.862 250.179 291.55 258.907C290.576 259.652 289.603 260.396 288.629 261.168L286.224 263C284.648 257.763 282.214 258.993 280.639 253.756C279.064 248.519 281.785 247.689 280.21 242.452C278.635 237.214 275.885 238.044 274.282 232.807C272.678 227.57 275.112 226.31 273.508 221.073C273.337 220.501 273.422 219.871 273.737 219.356C273.967 218.984 274.196 218.641 274.425 218.269C280.066 209.597 285.479 202.929 290.72 198.235C291.149 197.863 291.579 197.491 292.008 197.119C295.846 193.914 299.597 191.796 303.292 190.68C304.38 190.365 305.439 190.136 306.528 189.993C307.415 189.879 308.275 189.821 309.162 189.821C310.308 189.821 311.425 189.936 312.542 190.136C312.656 190.165 312.771 190.193 312.885 190.193C313.544 190.336 314.174 190.48 314.833 190.68C315.348 190.852 315.806 191.195 316.064 191.682L316.665 192.769C318.899 196.89 320.875 194.83 323.109 198.922C325.343 203.043 322.823 204.388 325.056 208.51C327.29 212.631 329.81 211.257 332.044 215.349C334.278 219.471 331.758 220.816 333.991 224.937C336.225 229.029 338.745 227.684 340.979 231.777C343.241 235.898 341.294 237.958 343.528 242.051Z" fill="#66D19E"/>
<path d="M343.527 242.051L340.52 244.798C337.37 242.709 334.22 241.393 330.955 240.82C329.723 240.62 328.463 240.505 327.175 240.505C326.774 240.505 326.373 240.505 325.972 240.534C324.912 237.157 326.917 235.841 325.199 232.034C323.309 227.856 320.703 229.029 318.812 224.822C316.922 220.644 319.528 219.442 317.638 215.264C316.378 212.488 314.803 212.058 313.343 210.885C312.598 210.284 311.882 209.483 311.252 208.08C309.362 203.902 311.968 202.7 310.078 198.522C308.188 194.343 305.582 195.517 303.663 191.31L303.377 190.68L293.354 170.589C293.096 170.103 293.411 169.502 293.955 169.416C294.9 169.273 295.988 169.13 296.704 169.13C298.279 169.13 299.854 169.359 301.372 169.845C301.802 169.988 302.174 170.275 302.374 170.675L302.861 171.562L312.97 190.165C313.629 190.308 314.259 190.451 314.918 190.651C315.433 190.823 315.891 191.166 316.149 191.653L316.751 192.74C318.984 196.862 320.96 194.801 323.194 198.894C325.428 203.015 322.908 204.36 325.141 208.481C327.375 212.602 329.895 211.228 332.129 215.321C334.363 219.442 331.843 220.787 334.076 224.908C336.31 229.001 338.83 227.656 341.064 231.748C343.24 235.898 341.293 237.958 343.527 242.051Z" fill="#06C167"/>
<path d="M312.913 190.165C312.799 190.165 312.684 190.136 312.57 190.136C311.023 189.964 309.62 189.85 308.904 189.85C308.131 189.85 307.329 189.907 306.556 189.993C301.83 190.565 297.077 192.884 292.122 197.033C291.693 197.405 291.234 197.806 290.776 198.235C285.822 202.814 279.464 210.999 274.481 218.269L274.052 216.866C279.493 209.053 286.395 200.324 291.406 196.146C297.334 191.195 303.234 188.705 308.933 188.705C309.62 188.705 310.88 188.791 312.283 188.934L312.913 190.165Z" fill="#06C167"/>
<path d="M287.398 118.245L281.441 129.206L274.167 104.651L275.083 100.416C275.083 100.416 278.033 101.16 280.095 101.675C281.183 101.961 281.985 102.906 282.042 104.05C282.214 107.141 283.417 111.062 287.111 115.326C287.799 116.128 287.913 117.301 287.398 118.245Z" fill="#573D30"/>
<path d="M288.973 124.999C288.887 124.999 288.829 124.999 288.743 124.942C284.877 123.34 283.388 120.592 283.331 120.478C283.188 120.191 283.302 119.848 283.56 119.705C283.846 119.562 284.19 119.676 284.333 119.934C284.333 119.963 285.708 122.452 289.173 123.883C289.459 123.998 289.603 124.341 289.488 124.627C289.431 124.856 289.202 124.999 288.973 124.999Z" fill="#573D30"/>
<path d="M108.24 157.911C108.211 157.94 108.211 157.969 108.211 157.969C105.977 163.234 102.913 166.983 101.281 168.758C100.508 169.588 99.9063 170.589 99.5054 171.677L82.4373 219.7L40.9126 210.198C41.1417 209.74 41.3708 209.282 41.5999 208.824C42.2013 207.594 42.8313 206.334 43.4327 205.104C44.3491 203.272 45.2369 201.441 46.1533 199.609C47.2415 197.377 48.3584 195.144 49.4466 192.941C50.6494 190.508 51.8522 188.076 53.055 185.643C54.2578 183.21 55.4606 180.749 56.6633 178.317C57.7802 176.056 58.8971 173.795 60.014 171.534C60.9304 169.645 61.8754 167.756 62.7918 165.896C63.7082 164.064 64.4814 162.147 64.9396 160.144C64.9683 160 64.9969 159.886 65.0256 159.743C65.5124 157.453 65.3406 155.221 65.2547 152.903C65.1401 150.299 65.0256 147.666 64.911 145.033C64.7965 142.056 64.6533 139.109 64.5387 136.132C64.4242 133.27 64.281 130.38 64.1664 127.489C64.0519 125.143 63.966 122.796 63.8514 120.449C63.7941 119.075 63.7369 117.673 63.6796 116.299C63.6796 116.099 63.6509 115.927 63.6509 115.727C63.565 113.609 64.2523 111.549 65.5983 109.917L80.7477 91.4581C81.034 91.1147 81.4063 90.8285 81.8073 90.6568C81.9218 90.5995 82.065 90.5423 82.2082 90.5137L82.8955 90.3134L89.654 88.4818H110.33V139.28C111.676 146.578 110.359 152.903 108.24 157.911Z" fill="#6E4E3D"/>
<path d="M110.33 139.28V116.385L99.1041 118.388C111.647 135.359 105.805 155.822 105.805 155.822H103.657C102.999 157.739 94.1784 163.578 93.262 165.352C91.0855 169.473 91.1714 169.731 89.4245 174.052L71.6978 217.21L82.4369 219.671L99.505 171.648C99.8773 170.561 100.479 169.588 101.281 168.729C102.913 166.955 105.977 163.206 108.211 157.94C108.211 157.94 108.211 157.911 108.239 157.883C110.359 152.903 111.705 146.578 110.33 139.28Z" fill="#573D30"/>
<path d="M76.9671 129.206L74.7906 114.325C74.5615 112.693 75.0197 111.062 76.0793 109.803L86.9044 96.9815L85.1861 114.811L76.9671 129.206Z" fill="#573D30"/>
<path d="M108.011 140.511H101.425V141.656H108.011V140.511Z" fill="#573D30"/>
<path d="M105.691 154.305V134.93H110.33V139.28C111.676 146.578 110.33 152.932 108.24 157.911C108.383 157.511 109.414 154.563 108.755 151.586C108.641 151.071 107.867 151.157 107.81 151.672C107.409 154.391 106.951 156.051 106.922 156.165C106.836 156.423 106.607 156.595 106.378 156.595C106.321 156.595 106.264 156.595 106.206 156.566C105.891 156.48 105.72 156.165 105.805 155.851C105.834 155.765 106.035 155.021 106.292 153.761C106.092 153.933 105.891 154.134 105.691 154.305Z" fill="#573D30"/>
<path d="M107.695 147.465H107.667C107.352 147.437 107.094 147.179 107.123 146.864C107.18 145.748 107.209 144.603 107.18 143.487C107.094 136.876 105.605 127.174 99.1327 118.417C98.9323 118.16 98.9896 117.816 99.2473 117.616C99.505 117.415 99.8487 117.473 100.049 117.73C106.722 126.745 108.24 136.705 108.325 143.459C108.354 144.603 108.325 145.777 108.268 146.922C108.24 147.236 107.982 147.465 107.695 147.465Z" fill="#6E4E3D"/>
<path d="M83.2676 93.0035L83.2103 92.4884C83.1817 92.1163 83.1244 91.7443 83.0671 91.315C83.0385 91.0288 82.9812 90.714 82.9526 90.3992C82.9526 90.3706 82.9526 90.342 82.9239 90.3134L82.2366 90.5137C82.0934 90.5423 81.9502 90.5995 81.8357 90.6568C81.8643 90.943 81.9216 91.2292 81.9503 91.5153C82.0075 91.8874 82.0648 92.2594 82.0934 92.6315L82.1507 93.1466C82.2653 94.2628 82.4085 95.4075 82.3225 96.495C82.2653 97.1533 82.1507 97.8401 82.0075 98.527C81.8643 99.1852 81.7498 99.8435 81.6639 100.559C81.6066 101.274 81.578 101.99 81.5493 102.705C81.5207 103.507 81.5207 104.279 81.4061 105.052C81.0625 107.628 80.3752 110.146 79.6879 112.522C78.8287 115.441 77.9123 117.73 76.7382 119.648C76.3945 120.22 76.0509 120.707 75.6786 121.136C75.6213 121.193 75.4495 121.336 75.3349 121.451C74.5044 122.166 74.1035 122.538 74.1035 123.168C74.1035 123.483 74.3613 123.74 74.6763 123.74C74.9913 123.74 75.249 123.483 75.249 123.168C75.249 123.053 75.7072 122.653 76.1082 122.309C76.3945 122.052 76.4804 121.966 76.5664 121.88C76.9673 121.394 77.3396 120.85 77.7405 120.22C78.9719 118.188 79.9456 115.841 80.8334 112.808C81.5207 110.404 82.2366 107.828 82.5803 105.167C82.6948 104.337 82.6948 103.535 82.7235 102.705C82.7521 102.047 82.7521 101.332 82.838 100.645C82.8953 99.9865 83.0385 99.3569 83.153 98.7273C83.2962 97.9832 83.4394 97.2678 83.4967 96.5237C83.5253 95.3503 83.3821 94.1483 83.2676 93.0035Z" fill="#573D30"/>
<path d="M93.1759 194.858L86.5033 216.895L86.0738 218.269V218.297L82.7518 229.287L80.7758 227.77C79.9739 227.14 79.1721 226.539 78.3702 225.91C74.9623 223.277 71.4972 220.587 68.032 218.24C61.7317 213.976 55.3741 210.77 49.1025 210.77C48.4724 210.77 47.8424 210.799 47.2124 210.856C46.8115 210.914 46.4105 210.942 46.0096 211.028C43.3177 211.486 40.7116 212.573 38.1342 214.291L35.6714 212.03L47.5847 190.136L47.6133 190.108L48.3006 188.82L57.6938 171.562L58.1806 170.675C58.4097 170.275 58.7534 169.988 59.183 169.845C60.7007 169.359 62.2758 169.13 63.8509 169.13C64.8819 169.13 65.9128 169.244 66.9724 169.445C70.5521 170.132 74.2177 172.02 77.9693 175.14C80.3176 177.086 82.6659 179.519 85.1001 182.409C87.6775 185.5 90.3121 189.163 93.0041 193.37C93.2332 193.857 93.3191 194.372 93.1759 194.858Z" fill="#06C167"/>
<path d="M86.9906 221.073C85.4155 226.31 87.8211 227.57 86.2174 232.807C84.6423 238.044 81.8931 237.214 80.2894 242.452C78.7143 247.689 81.4349 248.519 79.8598 253.756C78.2847 258.993 75.8505 257.763 74.2754 263L71.8699 261.168C70.8962 260.424 69.9225 259.68 68.9488 258.907C63.9372 255.015 58.8397 251.066 53.7136 247.832C47.3273 243.797 40.8839 240.849 34.5263 240.505C34.1254 240.477 33.7244 240.477 33.3235 240.477C32.0348 240.477 30.8034 240.591 29.572 240.792C26.2786 241.364 23.1285 242.652 19.9783 244.77L17 242.051C19.2337 237.958 17.2577 235.898 19.5201 231.777C21.7539 227.684 24.274 229.029 26.5077 224.937C28.7415 220.816 26.2213 219.471 28.4551 215.349C30.6888 211.257 33.2089 212.602 35.4427 208.51C37.6764 204.388 35.1563 203.043 37.3901 198.922C39.6238 194.83 41.5998 196.862 43.8335 192.769L44.4349 191.682C44.6927 191.195 45.1222 190.852 45.6664 190.68C46.2964 190.48 46.9551 190.308 47.6137 190.193C48.8451 189.936 50.1052 189.821 51.3653 189.821C53.3126 189.821 55.26 190.108 57.236 190.709C58.267 191.023 59.2979 191.395 60.3289 191.853C60.3289 191.853 60.3575 191.882 60.3861 191.882C63.0781 193.084 65.77 194.858 68.5479 197.148C70.5525 198.836 72.6144 200.811 74.6764 203.072C78.3993 207.164 82.2081 212.23 86.1315 218.269C86.3606 218.612 86.5897 218.984 86.8188 219.356C86.876 219.442 86.9333 219.528 86.9619 219.642C87.1051 220.072 87.1624 220.587 86.9906 221.073Z" fill="#06C167"/>
<path d="M72.5566 127.861C72.2416 127.861 71.9839 127.604 71.9839 127.289C71.9839 123.826 75.6209 121.136 75.7641 121.021C76.0218 120.85 76.3655 120.878 76.5659 121.136C76.7378 121.393 76.7091 121.737 76.4514 121.937C76.4227 121.966 73.1294 124.398 73.1294 127.26C73.1294 127.604 72.8717 127.861 72.5566 127.861Z" fill="#573D30"/>
<path d="M85.0718 182.466L76.051 200.525L75.7646 201.154C75.5928 201.555 75.3923 201.899 75.1918 202.213C74.9914 202.528 74.7909 202.814 74.5904 203.043C74.5618 203.072 74.5332 203.101 74.5045 203.158C72.8149 205.104 70.8675 205.018 69.3497 208.366C67.4597 212.545 70.0657 213.747 68.1756 217.925C68.1183 218.04 68.061 218.154 68.0038 218.269C67.4024 219.471 66.7437 220.186 66.0564 220.73C64.5959 221.903 63.0208 222.332 61.7607 225.108C59.8707 229.287 62.4767 230.489 60.5866 234.667C58.6965 238.846 56.0905 237.672 54.2004 241.879C52.969 244.598 53.6276 246.029 53.7422 247.861C47.356 243.825 40.9125 240.877 34.5549 240.534C34.154 240.505 33.7531 240.505 33.3521 240.505C32.0634 240.505 30.832 240.62 29.6006 240.82C26.3073 241.393 23.1571 242.68 20.007 244.798L17 242.051C19.2337 237.958 17.2577 235.898 19.5201 231.777C21.7539 227.684 24.274 229.029 26.5077 224.937C28.7415 220.816 26.2213 219.471 28.4551 215.349C30.6888 211.257 33.2089 212.602 35.4427 208.509C37.6764 204.388 35.1563 203.043 37.3901 198.922C39.6238 194.83 41.5998 196.862 43.8335 192.769L44.4349 191.682C44.6927 191.195 45.1222 190.852 45.6664 190.68C46.2964 190.48 46.955 190.308 47.6137 190.193L47.6424 190.165L48.3297 188.877L57.7228 171.62L58.2097 170.733C58.4388 170.332 58.7824 170.046 59.212 169.903C60.7298 169.416 62.3049 169.187 63.8799 169.187C64.9109 169.187 65.9419 169.302 67.0014 169.502C70.5812 170.189 74.2468 172.078 77.9983 175.197C80.2893 177.115 82.6663 179.547 85.0718 182.466Z" fill="#66D19E"/>
<path d="M86.9045 219.614C86.6182 219.156 86.3318 218.726 86.0454 218.297C82.2652 212.516 78.3419 207.365 74.5044 203.158C72.3279 200.754 70.1801 198.665 68.1182 196.947C65.4549 194.744 62.8775 193.055 60.3287 191.853C60.3001 191.853 60.3001 191.853 60.2715 191.825C57.2645 190.422 54.2862 189.735 51.3079 189.735C50.0478 189.735 48.8164 189.85 47.585 190.108L48.2723 188.82C49.2746 188.677 50.2769 188.591 51.3079 188.591C57.0068 188.591 62.9061 191.109 68.8341 196.032C70.8961 197.749 73.0153 199.809 75.1917 202.185C78.9433 206.277 82.7807 211.257 86.475 216.838L86.0454 218.211C86.2745 218.555 86.5036 218.927 86.7327 219.299C86.8186 219.442 86.8759 219.528 86.9045 219.614Z" fill="#06C167"/>
<path d="M267.35 134.93V27.5807C267.35 24.4898 264.859 22 261.766 22H99.2758C96.1829 22 93.6914 24.4898 93.6914 27.5807V134.93C93.6914 138.021 96.1829 140.511 99.2758 140.511H261.766C264.859 140.511 267.35 137.993 267.35 134.93Z" fill="#141414"/>
<path d="M267.35 132.956V29.5268C267.35 26.5505 264.945 24.1465 261.967 24.1465H99.0753C96.097 24.1465 93.6914 26.5505 93.6914 29.5268V132.956C93.6914 135.932 96.097 138.336 99.0753 138.336H261.967C264.945 138.336 267.35 135.932 267.35 132.956Z" fill="#545454"/>
<path d="M97.7576 87.566C98.501 87.566 99.1036 86.9638 99.1036 86.2209C99.1036 85.478 98.501 84.8758 97.7576 84.8758C97.0142 84.8758 96.4116 85.478 96.4116 86.2209C96.4116 86.9638 97.0142 87.566 97.7576 87.566Z" fill="#141414"/>
<path d="M97.7591 74.9451C98.5036 74.9451 99.105 75.5461 99.105 76.2902V81.2412C99.105 81.9853 98.5036 82.5863 97.7591 82.5863C97.0145 82.5863 96.4131 81.9853 96.4131 81.2412V76.2902C96.4131 75.5461 97.0145 74.9451 97.7591 74.9451Z" fill="#141414"/>
<path d="M256.182 24.1465H104.688C102.798 24.1465 101.251 25.6919 101.251 27.5808V134.93C101.251 136.819 102.798 138.365 104.688 138.365H256.182C258.072 138.365 259.618 136.819 259.618 134.93V27.5808C259.589 25.6919 258.072 24.1465 256.182 24.1465Z" fill="white"/>
<path d="M256.182 25.2626H104.689C103.429 25.2626 102.369 26.2929 102.369 27.5808V134.93C102.369 136.19 103.4 137.249 104.689 137.249H256.182C257.442 137.249 258.502 136.218 258.502 134.93V27.5808C258.473 26.2929 257.442 25.2626 256.182 25.2626Z" fill="white"/>
<path d="M263.399 109.574C263.17 107.37 262.741 105.195 262.569 103.02C262.282 99.729 262.626 96.4379 263.371 93.2325C264.402 88.9111 265.834 82.987 271.246 82.6149C271.819 82.5863 272.42 82.6149 272.993 82.7008C275.484 83.1301 277.088 84.79 277.804 87.1653C278.32 88.8252 277.833 90.8286 277.632 92.5171C277.489 93.8622 277.289 95.2073 277.403 96.581C277.489 97.9547 277.919 99.2998 278.062 100.702C278.205 102.219 278.119 103.707 278.32 105.224C278.663 107.828 279.351 110.347 280.066 112.865C280.811 115.441 281.756 117.988 283.159 120.277C283.503 120.85 283.875 121.422 284.334 121.937C284.505 122.138 285.622 123.025 285.622 123.197V155.879H255.037C255.037 155.879 249.166 135.417 261.738 118.446C263.6 115.842 263.686 112.693 263.399 109.574Z" fill="#6E4E3D"/>
<path d="M268.124 86.7361C269.785 86.1065 274.854 84.4466 276.945 87.1081C277.088 87.3085 277.145 87.566 277.117 87.795L276.229 92.2595C276.172 92.5171 275.971 92.7174 275.713 92.7174C274.339 92.8033 270.129 92.975 268.697 92.4599C268.525 92.4026 268.411 92.2595 268.354 92.1164C268.153 91.5155 267.666 89.8556 267.638 87.5374C267.58 87.1654 267.781 86.8506 268.124 86.7361Z" fill="#AB8A7A"/>
<path d="M97.4431 109.574C97.6722 107.37 98.1017 105.195 98.2736 103.02C98.5599 99.729 98.2163 96.4379 97.4717 93.2325C96.4408 88.9111 95.0089 82.987 89.5963 82.6149C89.0236 82.5863 88.4222 82.6149 87.8494 82.7008C85.358 83.1301 83.7543 84.79 83.0383 87.1653C82.5228 88.8252 83.0097 90.8286 83.2101 92.5171C83.3533 93.8622 83.5538 95.2073 83.4392 96.581C83.3533 97.9547 82.9238 99.2998 82.7806 100.702C82.6374 102.219 82.7233 103.707 82.5228 105.224C82.1792 107.828 81.4919 110.347 80.7759 112.865C80.0313 115.441 79.0863 117.988 77.6831 120.277C77.3394 120.85 76.9671 121.422 76.5089 121.937C76.3371 122.138 74.6475 123.025 74.6475 123.197L75.2202 155.879H105.777C105.777 155.879 111.647 135.417 99.0754 118.446C97.2426 115.842 97.1567 112.693 97.4431 109.574Z" fill="#6E4E3D"/>
<path d="M92.7186 86.7361C91.0577 86.1065 85.9888 84.4466 83.8982 87.1081C83.755 87.3085 83.6978 87.566 83.7264 87.795L84.6142 92.2595C84.6714 92.5171 84.8719 92.7174 85.1296 92.7174C86.5043 92.8033 90.714 92.975 92.1459 92.4599C92.3177 92.4026 92.4323 92.2595 92.4895 92.1164C92.69 91.5155 93.1768 89.8556 93.2055 87.5374C93.2628 87.1654 93.0623 86.8506 92.7186 86.7361Z" fill="#AB8A7A"/>
<path d="M99.1339 118.417C99.1339 118.417 110.904 144.088 93.2632 165.352L105.807 155.822C105.807 155.822 111.677 135.36 99.1339 118.417Z" fill="#573D30"/>
<path d="M105.792 97.7134V26.5466C105.792 25.2951 106.815 24.2427 108.095 24.2427H188.336C145.698 24.2427 110.57 56.3559 105.792 97.7134Z" fill="#EBF5F7" fill-opacity="0.5"/>
</g>
<path d="M196.5 72H163.5V106H196.5V72Z" fill="#06C167"/>
<path d="M188.5 72H185V64L188.5 67.5V72Z" fill="#142328"/>
<path d="M171.5 72H175V64L171.5 67.5V72Z" fill="#142328"/>
<path d="M185 64H182.8V67.5H185V64Z" fill="#06C167"/>
<path fill-rule="evenodd" clip-rule="evenodd" d="M173.8 85.1C173.8 86.3 173 87.1 172 87.1C171 87.1 170.2 86.3 170.2 85.1V80.5H169V85.2C169 87 170.2 88.1 171.8 88.1C172.5 88.1 173.3 87.8 173.8 87.3V88H174.9V80.5H173.8V85.1Z" fill="#142328"/>
<path fill-rule="evenodd" clip-rule="evenodd" d="M178.7 82.4C178 82.4 177.3 82.7 176.8 83.2V80.5H175.7V88H176.8V87.3C177.3 87.8 178 88.1 178.7 88.1C180.3 88.1 181.5 86.8 181.5 85.3C181.6 83.7 180.3 82.4 178.7 82.4ZM178.7 87.2C177.7 87.2 176.8 86.4 176.8 85.3C176.8 84.2 177.6 83.4 178.7 83.4C179.7 83.4 180.6 84.2 180.6 85.3C180.5 86.3 179.7 87.2 178.7 87.2Z" fill="#142328"/>
<path fill-rule="evenodd" clip-rule="evenodd" d="M187.5 85.3C187.5 83.7 186.3 82.5 184.8 82.5C183.3 82.5 182 83.8 182 85.3C182 86.9 183.3 88.1 184.9 88.1C185.8 88.1 186.7 87.7 187.2 86.9L186.4 86.3C186 86.8 185.5 87.1 184.8 87.1C183.9 87.1 183.1 86.4 183 85.6H187.4V85.3H187.5ZM183.1 84.8C183.3 84 184 83.4 184.8 83.4C185.6 83.4 186.3 84 186.4 84.8H183.1Z" fill="#142328"/>
<path fill-rule="evenodd" clip-rule="evenodd" d="M190.9 82.5V83.5H190.5C189.8 83.5 189.3 84 189.3 84.9V88H188.2V82.6H189.3V83.3C189.6 82.8 190.1 82.6 190.6 82.6L190.9 82.5Z" fill="#142328"/>
<path fill-rule="evenodd" clip-rule="evenodd" d="M174.2 89.9H169V97.3H174.2V96.1H170.4V94.2H174.1V93H170.4V91.2H174.2V89.9Z" fill="white"/>
<path fill-rule="evenodd" clip-rule="evenodd" d="M191 95.7C191 96.8 190.1 97.5 188.5 97.5C186.8 97.5 185.9 96.7 185.7 95.6H187.1C187.3 96.2 187.7 96.4 188.5 96.4C189.1 96.4 189.5 96.2 189.5 95.8C189.5 95.6 189.4 95.4 188.8 95.3L187.6 95C186.4 94.7 185.8 94.2 185.8 93.4C185.8 92.2 186.8 91.6 188.3 91.6C190 91.6 190.8 92.4 190.9 93.5H189.5C189.4 92.9 188.9 92.7 188.2 92.7C187.6 92.7 187.3 92.9 187.3 93.2C187.3 93.5 187.5 93.6 188.2 93.7L189.4 93.9C190.5 94.3 191 94.9 191 95.7Z" fill="white"/>
<path fill-rule="evenodd" clip-rule="evenodd" d="M184.3 96.1H185.3V97.3H183.8C182.9 97.3 182.3 96.7 182.3 96V93.1H181.2V91.9H182.3V90.3H183.7V91.9H185.3V93.1H183.7V95.7C183.7 96 184 96.1 184.3 96.1Z" fill="white"/>
<path fill-rule="evenodd" clip-rule="evenodd" d="M179.3 91.8V92.3C178.8 91.9 178.2 91.7 177.5 91.7C175.9 91.7 174.6 93 174.6 94.6C174.6 96.2 175.9 97.5 177.5 97.5C178.1 97.5 178.8 97.3 179.3 96.9V97.4H180.7V91.9H179.3V91.8ZM177.7 96.3C176.8 96.3 176 95.6 176 94.6C176 93.7 176.7 92.9 177.7 92.9C178.6 92.9 179.4 93.6 179.4 94.6C179.3 95.5 178.6 96.3 177.7 96.3Z" fill="white"/>
<path d="M156 66.8L182 62.5L175.7 58H156V66.8Z" fill="#FABDA5"/>
<path d="M175.6 68L172.6 62.9L180.6 59.5L184.1 66.3L175.6 68Z" fill="#FABDA5"/>
<path d="M184.9 67.2L181.4 60.8L179.5 61.8L183 68.2C183.1 68.5 183.4 68.6 183.7 68.7C183.8 68.7 183.9 68.7 184 68.7C184.2 68.7 184.4 68.7 184.5 68.6C184.9 68.4 185.1 67.8 184.9 67.2Z" fill="#FABDA5"/>
<path d="M182.4 67.2L178.9 60.9L177 62L180.5 68.3C180.7 68.7 181.1 68.9 181.5 68.9C181.7 68.9 181.9 68.9 182 68.8C182.3 68.7 182.4 68.4 182.5 68.1C182.6 67.8 182.5 67.5 182.4 67.2Z" fill="#FABDA5"/>
<path d="M179.9 67.2L176.3 60.9L174.4 62L178 68.3C178.2 68.7 178.6 68.9 179 68.9C179.2 68.9 179.4 68.9 179.5 68.8C180 68.4 180.2 67.7 179.9 67.2Z" fill="#FABDA5"/>
<path d="M177.4 67.2L173.8 60.9L171.9 62L175.5 68.3C175.7 68.7 176.1 68.8 176.5 68.8C176.7 68.8 176.9 68.8 177 68.7C177.3 68.6 177.4 68.3 177.5 68C177.6 67.8 177.5 67.5 177.4 67.2Z" fill="#FABDA5"/>
<path d="M183.4 59.4C182.2 58.5 180.7 58 179.2 58H178.4H175L181.2 62L182.3 61.5C182.6 61.4 183 61.4 183.3 61.6L184.9 62.8C185.1 63 185.3 63 185.6 63C186 63 186.3 62.8 186.6 62.5C186.8 62.2 186.8 61.8 186.5 61.6L183.4 59.4Z" fill="#FABDA5"/>
</svg>
